<svg width="42" height="31" viewBox="0 0 42 31" fill="none" xmlns="http://www.w3.org/2000/svg">
<path d="M39.0266 15.0904L35.1937 21.2024L27.9865 20.9387L25.9107 17.0172L25.9083 17.0157L24.6108 14.5656L28.4437 8.45367L35.6508 8.71731L39.0266 15.0904Z" fill="#54D9EE"/>
<path d="M26.7842 20.6127L25.5132 22.6395L17.0293 22.3284L14.5515 17.6483C14.549 17.6467 14.5506 17.6443 14.5481 17.6427L13.0557 14.8254L17.5662 7.63296L26.0494 7.94499L26.8009 9.36168L23.5619 14.5264L23.806 14.989C23.8084 14.9906 23.8093 14.9945 23.8104 14.9983L26.7842 20.6127Z" fill="#243AC0"/>
<g style="mix-blend-mode:screen" opacity="0.4">
<g style="mix-blend-mode:screen" opacity="0.4">
<path d="M38.0315 15.0534L25.6121 14.6L28.9137 9.33544L35.1234 9.56211L38.0315 15.0534Z" fill="white"/>
</g>
</g>
<g style="mix-blend-mode:screen" opacity="0.2">
<g style="mix-blend-mode:screen" opacity="0.2">
<path d="M25.8046 9.32428L23.9762 12.2398L15.8841 11.9465L18.0347 8.51716L25.522 8.78979L25.8046 9.32428Z" fill="white"/>
</g>
</g>
<g style="mix-blend-mode:multiply" opacity="0.3">
<g style="mix-blend-mode:multiply" opacity="0.3">
<path d="M26.7831 20.6128L25.5121 22.6395L17.0282 22.3284L14.5504 17.6483C15.0224 18.393 15.4784 19.1523 15.9282 19.9106L16.5983 21.0555C16.7948 21.3931 16.9874 21.7316 17.1785 22.0726C17.1826 22.0714 17.185 22.073 17.189 22.072C17.8465 22.0761 18.504 22.0802 19.16 22.0973C19.8659 22.111 20.5755 22.1242 21.2817 22.1482C21.9878 22.1723 22.6957 22.1882 23.4026 22.2165L25.3371 22.3001L26.4506 20.5897L25.8225 19.318L25.1325 17.8848C24.6795 16.9308 24.2297 15.9717 23.81 14.9971L26.7831 20.6128Z" fill="black"/>
</g>
</g>
<g style="mix-blend-mode:multiply" opacity="0.3">
<g style="mix-blend-mode:multiply" opacity="0.3">
<path d="M26.0494 7.94597C25.3384 8.00019 24.6305 8.02233 23.9226 8.04447C23.2153 8.06019 22.5047 8.07017 21.7976 8.06934C21.4428 8.071 21.0899 8.06404 20.7353 8.05978L19.6738 8.04355C19.0335 8.02302 18.3908 8.0116 17.7488 7.98288C17.4406 8.46354 17.14 8.94831 16.822 9.42285L16.2957 10.2186L15.757 11.0072C15.5772 11.2721 15.399 11.5346 15.2136 11.7922L14.6602 12.5716C14.2851 13.0883 13.9076 13.6034 13.5082 14.1048L17.5662 7.63394L26.0494 7.94597Z" fill="black"/>
</g>
</g>
<path d="M40.5266 25.9452H12.3539C12.0171 25.9452 11.7441 25.7185 11.7441 25.4389C11.7441 25.1594 12.0171 24.9326 12.3539 24.9326H40.5266C40.8634 24.9326 41.1363 25.1594 41.1363 25.4389C41.1363 25.7185 40.8634 25.9452 40.5266 25.9452Z" fill="#256EE4"/>
<path d="M11.7458 25.4778L4.83424 7.2789C4.74341 7.02332 4.88398 6.76599 5.14997 6.70687C5.41381 6.64602 5.70143 6.80424 5.79226 7.05983L12.7038 25.2605C12.7947 25.5161 12.6541 25.7734 12.3881 25.8325C12.1243 25.8934 11.8367 25.7334 11.7458 25.4778Z" fill="#256EE4"/>
<path d="M15.6406 27.7924C16.1711 27.7924 16.6026 28.2239 16.6026 28.7544C16.6026 29.2849 16.1711 29.7164 15.6406 29.7164C15.1101 29.7164 14.6786 29.2849 14.6786 28.7544C14.6764 28.2239 15.1101 27.7924 15.6406 27.7924ZM15.6406 26.7798C14.5488 26.7798 13.666 27.6647 13.666 28.7544C13.666 29.8462 14.551 30.729 15.6406 30.729C16.7303 30.729 17.6152 29.844 17.6152 28.7544C17.6152 27.6647 16.7303 26.7798 15.6406 26.7798Z" fill="#256EE4"/>
<path d="M37.2324 27.7924C37.7629 27.7924 38.1944 28.2239 38.1944 28.7544C38.1944 29.2849 37.7629 29.7164 37.2324 29.7164C36.7019 29.7164 36.2704 29.2849 36.2704 28.7544C36.2704 28.2239 36.7019 27.7924 37.2324 27.7924ZM37.2324 26.7798C36.1406 26.7798 35.2578 27.6647 35.2578 28.7544C35.2578 29.8462 36.1428 30.729 37.2324 30.729C38.3243 30.729 39.207 29.844 39.207 28.7544C39.207 27.6647 38.3243 26.7798 37.2324 26.7798Z" fill="#256EE4"/>
<path d="M5.07007 7.5025C5.05246 7.5025 5.03265 7.5025 5.01504 7.5003L0.854511 7.04462C0.577143 7.0138 0.374625 6.76505 0.405444 6.48548C0.436263 6.20811 0.685008 6.0078 0.964578 6.03641L5.1251 6.49208C5.40247 6.5229 5.60499 6.77165 5.57417 7.05122C5.54335 7.30878 5.32543 7.5025 5.07007 7.5025Z" fill="#256EE4"/>
</svg>
